<mxfile host="app.diagrams.net" modified="2020-11-11T15:46:51.220Z" agent="5.0 (X11; Linux x86_64) AppleWebKit/537.36 (KHTML, like Gecko) Chrome/85.0.4183.121 Safari/537.36" etag="r6gJnskQZycdlZSoN2I7" version="13.9.2" type="github">
  <diagram id="9cn4-sPAMM9QlVugcmKp" name="Page-1">
    <mxGraphModel dx="1036" dy="462" grid="1" gridSize="10" guides="1" tooltips="1" connect="1" arrows="1" fold="1" page="1" pageScale="1" pageWidth="850" pageHeight="1100" math="0" shadow="0">
      <root>
        <mxCell id="0" />
        <mxCell id="1" parent="0" />
        <mxCell id="hVl3eKsV4c-Q1abWNWTe-2" value="Nhận yêu cầu liên hệ" style="ellipse;whiteSpace=wrap;html=1;" parent="1" vertex="1">
          <mxGeometry x="740" y="70" width="120" height="45" as="geometry" />
        </mxCell>
        <mxCell id="hVl3eKsV4c-Q1abWNWTe-3" value="Thêm sản phẩm" style="ellipse;whiteSpace=wrap;html=1;" parent="1" vertex="1">
          <mxGeometry x="1200" y="220" width="120" height="50" as="geometry" />
        </mxCell>
        <mxCell id="hVl3eKsV4c-Q1abWNWTe-4" value="Thêm danh mục &lt;br&gt;sản phẩm" style="ellipse;whiteSpace=wrap;html=1;" parent="1" vertex="1">
          <mxGeometry x="850" y="20" width="120" height="50" as="geometry" />
        </mxCell>
        <mxCell id="hVl3eKsV4c-Q1abWNWTe-5" value="Xóa sản phẩm" style="ellipse;whiteSpace=wrap;html=1;" parent="1" vertex="1">
          <mxGeometry x="1200" y="50" width="120" height="45" as="geometry" />
        </mxCell>
        <mxCell id="hVl3eKsV4c-Q1abWNWTe-6" value="Nhà phân phối&lt;br&gt;" style="shape=umlActor;verticalLabelPosition=bottom;verticalAlign=top;html=1;outlineConnect=0;" parent="1" vertex="1">
          <mxGeometry x="690" y="240" width="30" height="60" as="geometry" />
        </mxCell>
        <mxCell id="hVl3eKsV4c-Q1abWNWTe-7" value="Đăng xuất" style="ellipse;whiteSpace=wrap;html=1;" parent="1" vertex="1">
          <mxGeometry x="880" y="270" width="120" height="40" as="geometry" />
        </mxCell>
        <mxCell id="hVl3eKsV4c-Q1abWNWTe-9" value="" style="endArrow=open;endFill=1;endSize=12;html=1;entryX=0.225;entryY=0.978;entryDx=0;entryDy=0;entryPerimeter=0;" parent="1" target="hVl3eKsV4c-Q1abWNWTe-2" edge="1">
          <mxGeometry width="160" relative="1" as="geometry">
            <mxPoint x="717" y="230" as="sourcePoint" />
            <mxPoint x="710" y="212.5" as="targetPoint" />
          </mxGeometry>
        </mxCell>
        <mxCell id="hVl3eKsV4c-Q1abWNWTe-14" value="Xem chi tiết sản phẩm" style="ellipse;whiteSpace=wrap;html=1;" parent="1" vertex="1">
          <mxGeometry x="1100" y="130" width="120" height="40" as="geometry" />
        </mxCell>
        <mxCell id="hVl3eKsV4c-Q1abWNWTe-15" value="Xem trang sản phẩm" style="ellipse;whiteSpace=wrap;html=1;" parent="1" vertex="1">
          <mxGeometry x="780" y="200" width="120" height="40" as="geometry" />
        </mxCell>
        <mxCell id="hVl3eKsV4c-Q1abWNWTe-16" value="&amp;lt;&amp;lt;extend&amp;gt;&amp;gt;" style="endArrow=open;endSize=12;dashed=1;html=1;exitX=0.058;exitY=0.3;exitDx=0;exitDy=0;exitPerimeter=0;entryX=1;entryY=0.5;entryDx=0;entryDy=0;" parent="1" source="hVl3eKsV4c-Q1abWNWTe-14" target="hVl3eKsV4c-Q1abWNWTe-15" edge="1">
          <mxGeometry width="160" relative="1" as="geometry">
            <mxPoint x="1019.04" y="202.5" as="sourcePoint" />
            <mxPoint x="989.04" y="295" as="targetPoint" />
          </mxGeometry>
        </mxCell>
        <mxCell id="hVl3eKsV4c-Q1abWNWTe-19" value="Tìm kiếm sản phẩm" style="ellipse;whiteSpace=wrap;html=1;" parent="1" vertex="1">
          <mxGeometry x="980" y="60" width="120" height="40" as="geometry" />
        </mxCell>
        <mxCell id="hVl3eKsV4c-Q1abWNWTe-21" value="&amp;lt;&amp;lt;extend&amp;gt;&amp;gt;" style="endArrow=open;endSize=12;dashed=1;html=1;exitX=0;exitY=1;exitDx=0;exitDy=0;entryX=1;entryY=0;entryDx=0;entryDy=0;" parent="1" source="hVl3eKsV4c-Q1abWNWTe-19" target="hVl3eKsV4c-Q1abWNWTe-15" edge="1">
          <mxGeometry width="160" relative="1" as="geometry">
            <mxPoint x="886" y="232" as="sourcePoint" />
            <mxPoint x="819.04" y="220" as="targetPoint" />
          </mxGeometry>
        </mxCell>
        <mxCell id="hVl3eKsV4c-Q1abWNWTe-22" value="&amp;lt;&amp;lt;extend&amp;gt;&amp;gt;" style="endArrow=open;endSize=12;dashed=1;html=1;entryX=1;entryY=1;entryDx=0;entryDy=0;" parent="1" source="hVl3eKsV4c-Q1abWNWTe-14" target="hVl3eKsV4c-Q1abWNWTe-19" edge="1">
          <mxGeometry width="160" relative="1" as="geometry">
            <mxPoint x="886" y="232" as="sourcePoint" />
            <mxPoint x="819.04" y="220" as="targetPoint" />
          </mxGeometry>
        </mxCell>
        <mxCell id="hVl3eKsV4c-Q1abWNWTe-23" value="Xem sản phẩm theo danh mục" style="ellipse;whiteSpace=wrap;html=1;" parent="1" vertex="1">
          <mxGeometry x="980" y="220" width="120" height="40" as="geometry" />
        </mxCell>
        <mxCell id="hVl3eKsV4c-Q1abWNWTe-24" value="&amp;lt;&amp;lt;extend&amp;gt;&amp;gt;" style="endArrow=open;endSize=12;dashed=1;html=1;exitX=0.042;exitY=0.275;exitDx=0;exitDy=0;exitPerimeter=0;entryX=0.908;entryY=0.8;entryDx=0;entryDy=0;entryPerimeter=0;" parent="1" source="hVl3eKsV4c-Q1abWNWTe-23" target="hVl3eKsV4c-Q1abWNWTe-15" edge="1">
          <mxGeometry width="160" relative="1" as="geometry">
            <mxPoint x="1076.96" y="257" as="sourcePoint" />
            <mxPoint x="980" y="225" as="targetPoint" />
          </mxGeometry>
        </mxCell>
        <mxCell id="hVl3eKsV4c-Q1abWNWTe-25" value="&amp;lt;&amp;lt;extend&amp;gt;&amp;gt;" style="endArrow=open;endSize=12;dashed=1;html=1;exitX=0.358;exitY=1.075;exitDx=0;exitDy=0;exitPerimeter=0;entryX=0.708;entryY=-0.075;entryDx=0;entryDy=0;entryPerimeter=0;" parent="1" source="hVl3eKsV4c-Q1abWNWTe-14" target="hVl3eKsV4c-Q1abWNWTe-23" edge="1">
          <mxGeometry width="160" relative="1" as="geometry">
            <mxPoint x="1015.04" y="341" as="sourcePoint" />
            <mxPoint x="953" y="244" as="targetPoint" />
          </mxGeometry>
        </mxCell>
        <mxCell id="hVl3eKsV4c-Q1abWNWTe-26" value="&amp;lt;&amp;lt;extend&amp;gt;&amp;gt;" style="endArrow=open;endSize=12;dashed=1;html=1;exitX=0.333;exitY=1;exitDx=0;exitDy=0;exitPerimeter=0;entryX=0.3;entryY=-0.05;entryDx=0;entryDy=0;entryPerimeter=0;" parent="1" source="hVl3eKsV4c-Q1abWNWTe-19" target="hVl3eKsV4c-Q1abWNWTe-23" edge="1">
          <mxGeometry width="160" relative="1" as="geometry">
            <mxPoint x="1116.96" y="232" as="sourcePoint" />
            <mxPoint x="980" y="225" as="targetPoint" />
          </mxGeometry>
        </mxCell>
        <mxCell id="hVl3eKsV4c-Q1abWNWTe-27" value="" style="endArrow=open;endFill=1;endSize=12;html=1;entryX=0;entryY=0.5;entryDx=0;entryDy=0;exitX=1;exitY=0.3333333333333333;exitDx=0;exitDy=0;exitPerimeter=0;" parent="1" source="hVl3eKsV4c-Q1abWNWTe-6" target="hVl3eKsV4c-Q1abWNWTe-15" edge="1">
          <mxGeometry width="160" relative="1" as="geometry">
            <mxPoint x="680" y="250" as="sourcePoint" />
            <mxPoint x="770" y="220" as="targetPoint" />
          </mxGeometry>
        </mxCell>
        <mxCell id="hVl3eKsV4c-Q1abWNWTe-28" value="&amp;lt;&amp;lt;extend&amp;gt;&amp;gt;" style="endArrow=open;endSize=12;dashed=1;html=1;exitX=0.442;exitY=1.08;exitDx=0;exitDy=0;exitPerimeter=0;" parent="1" source="hVl3eKsV4c-Q1abWNWTe-4" target="hVl3eKsV4c-Q1abWNWTe-15" edge="1">
          <mxGeometry width="160" relative="1" as="geometry">
            <mxPoint x="937.5735931288073" y="104.14213562373084" as="sourcePoint" />
            <mxPoint x="892.4264068711927" y="215.85786437626905" as="targetPoint" />
          </mxGeometry>
        </mxCell>
        <mxCell id="hVl3eKsV4c-Q1abWNWTe-29" value="&amp;lt;&amp;lt;extend&amp;gt;&amp;gt;" style="endArrow=open;endSize=12;dashed=1;html=1;entryX=0.717;entryY=0;entryDx=0;entryDy=0;entryPerimeter=0;" parent="1" source="hVl3eKsV4c-Q1abWNWTe-5" target="hVl3eKsV4c-Q1abWNWTe-14" edge="1">
          <mxGeometry width="160" relative="1" as="geometry">
            <mxPoint x="1152.96" y="183" as="sourcePoint" />
            <mxPoint x="1074.96" y="227" as="targetPoint" />
          </mxGeometry>
        </mxCell>
        <mxCell id="hVl3eKsV4c-Q1abWNWTe-30" value="&amp;lt;&amp;lt;extend&amp;gt;&amp;gt;" style="endArrow=open;endSize=12;dashed=1;html=1;exitX=0;exitY=0.5;exitDx=0;exitDy=0;entryX=1.008;entryY=0.675;entryDx=0;entryDy=0;entryPerimeter=0;" parent="1" source="hVl3eKsV4c-Q1abWNWTe-3" target="hVl3eKsV4c-Q1abWNWTe-23" edge="1">
          <mxGeometry width="160" relative="1" as="geometry">
            <mxPoint x="1152.96" y="183" as="sourcePoint" />
            <mxPoint x="1074.96" y="227" as="targetPoint" />
          </mxGeometry>
        </mxCell>
        <mxCell id="hVl3eKsV4c-Q1abWNWTe-31" value="" style="endArrow=open;endFill=1;endSize=12;html=1;entryX=0.017;entryY=0.35;entryDx=0;entryDy=0;entryPerimeter=0;" parent="1" target="hVl3eKsV4c-Q1abWNWTe-7" edge="1">
          <mxGeometry width="160" relative="1" as="geometry">
            <mxPoint x="730" y="280" as="sourcePoint" />
            <mxPoint x="790" y="230" as="targetPoint" />
          </mxGeometry>
        </mxCell>
        <mxCell id="hVl3eKsV4c-Q1abWNWTe-32" value="Xem trang tin tức, &lt;br&gt;bài báo về sản phẩm" style="ellipse;whiteSpace=wrap;html=1;" parent="1" vertex="1">
          <mxGeometry x="830" y="440" width="120" height="50" as="geometry" />
        </mxCell>
        <mxCell id="hVl3eKsV4c-Q1abWNWTe-33" value="Xem trang thông tin liên hệ nhà phân phối" style="ellipse;whiteSpace=wrap;html=1;" parent="1" vertex="1">
          <mxGeometry x="830" y="350" width="140" height="70" as="geometry" />
        </mxCell>
        <mxCell id="hVl3eKsV4c-Q1abWNWTe-38" value="Xem thông tin khác" style="ellipse;whiteSpace=wrap;html=1;" parent="1" vertex="1">
          <mxGeometry x="850" y="510" width="120" height="40" as="geometry" />
        </mxCell>
        <mxCell id="hVl3eKsV4c-Q1abWNWTe-39" value="Xem trang giới thiệu công ty" style="ellipse;whiteSpace=wrap;html=1;" parent="1" vertex="1">
          <mxGeometry x="1005" y="330" width="120" height="50" as="geometry" />
        </mxCell>
        <mxCell id="hVl3eKsV4c-Q1abWNWTe-40" value="" style="endArrow=open;endFill=1;endSize=12;html=1;entryX=0;entryY=0.5;entryDx=0;entryDy=0;" parent="1" target="hVl3eKsV4c-Q1abWNWTe-39" edge="1">
          <mxGeometry width="160" relative="1" as="geometry">
            <mxPoint x="750" y="310" as="sourcePoint" />
            <mxPoint x="860" y="190" as="targetPoint" />
          </mxGeometry>
        </mxCell>
        <mxCell id="hVl3eKsV4c-Q1abWNWTe-41" value="" style="endArrow=open;endFill=1;endSize=12;html=1;entryX=0;entryY=0.5;entryDx=0;entryDy=0;" parent="1" target="hVl3eKsV4c-Q1abWNWTe-33" edge="1">
          <mxGeometry width="160" relative="1" as="geometry">
            <mxPoint x="740" y="330" as="sourcePoint" />
            <mxPoint x="830" y="315" as="targetPoint" />
          </mxGeometry>
        </mxCell>
        <mxCell id="hVl3eKsV4c-Q1abWNWTe-42" value="" style="endArrow=open;endFill=1;endSize=12;html=1;entryX=0;entryY=0.5;entryDx=0;entryDy=0;" parent="1" target="hVl3eKsV4c-Q1abWNWTe-32" edge="1">
          <mxGeometry width="160" relative="1" as="geometry">
            <mxPoint x="730" y="340" as="sourcePoint" />
            <mxPoint x="835" y="395" as="targetPoint" />
          </mxGeometry>
        </mxCell>
        <mxCell id="hVl3eKsV4c-Q1abWNWTe-43" value="" style="endArrow=open;endFill=1;endSize=12;html=1;entryX=0;entryY=0.5;entryDx=0;entryDy=0;" parent="1" target="hVl3eKsV4c-Q1abWNWTe-38" edge="1">
          <mxGeometry width="160" relative="1" as="geometry">
            <mxPoint x="720" y="340" as="sourcePoint" />
            <mxPoint x="840" y="475" as="targetPoint" />
          </mxGeometry>
        </mxCell>
      </root>
    </mxGraphModel>
  </diagram>
</mxfile>
